<svg height="64px" width="64px" version="1.1" id="Layer_1" xmlns="http://www.w3.org/2000/svg" xmlns:xlink="http://www.w3.org/1999/xlink" viewBox="0 0 512 512" xml:space="preserve" fill="#000000"><g id="SVGRepo_bgCarrier" stroke-width="0"></g><g id="SVGRepo_tracerCarrier" stroke-linecap="round" stroke-linejoin="round"></g><g id="SVGRepo_iconCarrier"> <path style="fill:#f9fafa;" d="M235.292,0.817C111.589,10.542,11.211,110.452,0.923,234.109 c-4.858,58.397,9.936,113.097,38.447,158.277c3.194,5.063,3.807,11.324,1.378,16.795L0.816,499.121 c-3.395,7.647,4.416,15.458,12.063,12.063l89.94-39.932c5.472-2.43,11.733-1.817,16.795,1.378 c45.179,28.51,99.875,43.303,158.27,38.448c123.655-10.283,223.566-110.655,233.299-234.354 C523.591,119.026,392.987-11.584,235.292,0.817z"></path> <circle style="fill:#42A5F5;" cx="256.005" cy="255.995" r="220.685"></circle> <path style="fill:#1976d2;" d="M256.005,35.31c-121.881,0-220.685,98.804-220.685,220.685s98.804,220.685,220.685,220.685 S476.69,377.876,476.69,255.995S377.886,35.31,256.005,35.31z M256.005,450.185c-107.248,0-194.191-86.942-194.191-194.191 S148.757,61.803,256.005,61.803s194.191,86.943,194.191,194.192S363.255,450.185,256.005,450.185z"></path> <path style="fill:#f9fafa;" d="M376.727,132.414h62.137c-4.141-6.115-8.595-11.999-13.312-17.655h-55.874 c-12.587-28.772-28.926-52.572-47.765-69.432c-20.814-6.506-42.95-10.018-65.908-10.018s-45.094,3.512-65.908,10.017 c-18.839,16.861-35.178,40.661-47.765,69.432H86.46c-4.717,5.656-9.171,11.54-13.311,17.655h62.137 c-12.159,33.699-19.469,72.876-20.377,114.765H35.543c-0.115,2.928-0.223,5.859-0.223,8.816c0,2.965,0.108,5.903,0.224,8.838h79.365 c0.91,41.883,8.222,81.054,20.379,114.747H73.151c4.141,6.115,8.595,11.999,13.312,17.655h55.872 c12.587,28.77,28.925,52.568,47.763,69.426c20.814,6.505,42.949,10.017,65.906,10.017s45.094-3.512,65.908-10.017 c18.838-16.859,35.176-40.658,47.763-69.426h55.872c4.717-5.656,9.172-11.54,13.312-17.655h-62.137 c12.159-33.694,19.47-72.865,20.379-114.747h79.365c0.116-2.936,0.224-5.875,0.224-8.838c0-2.957-0.108-5.888-0.223-8.816h-79.365 C396.194,205.29,388.884,166.113,376.727,132.414z M247.153,476.041c-34.48-4.385-65.094-34.095-86.005-78.804h86.01 L247.153,476.041z M247.158,379.581H153.68c-12.538-32.998-20.184-72.358-21.125-114.747h114.608L247.158,379.581z M247.166,247.178 h-114.61c0.939-42.395,8.584-81.763,21.123-114.765h93.493L247.166,247.178z M247.174,114.76h-86.028 c20.917-44.723,51.541-74.438,86.033-78.812L247.174,114.76z M264.833,35.946c34.492,4.373,65.117,34.089,86.034,78.812h-86.038 L264.833,35.946z M264.807,476.047l0.004-78.812h86.052C329.941,441.968,299.308,471.685,264.807,476.047z M358.33,379.581h-93.517 l0.007-114.747h114.636C378.514,307.223,370.869,346.583,358.33,379.581z M264.821,247.178l0.007-114.765h93.505 c12.539,33.002,20.184,72.369,21.123,114.765H264.821z"></path> </g></svg>